<svg xmlns="http://www.w3.org/2000/svg" id="Layer_1" height="512" viewBox="0 0 512 512" width="512" data-name="Layer 1"><path d="m115.032 485.25h281.936a55.1 55.1 0 0 0 55.032-55.032 5.912 5.912 0 0 0 -.092-1.046l-45.771-258.4a30.366 30.366 0 0 0 -30.137-25.722h-32.972v-31.273a87.028 87.028 0 0 0 -174.056 0v31.273h-32.972a30.366 30.366 0 0 0 -30.138 25.726l-45.771 258.4a5.912 5.912 0 0 0 -.091 1.042 55.1 55.1 0 0 0 55.032 55.032zm65.94-371.473a75.028 75.028 0 0 1 150.056 0v31.273h-150.056zm-63.283 59.035c.007-.039.013-.078.02-.116a18.426 18.426 0 0 1 18.291-15.646h32.971v47.479a6 6 0 0 0 12 0v-47.479h150.057v47.479a6 6 0 0 0 12 0v-47.479h32.972a18.426 18.426 0 0 1 18.291 15.65c.007.038.013.077.02.116l45.689 257.913a43.082 43.082 0 0 1 -43.029 42.521h-281.939a43.082 43.082 0 0 1 -43.032-42.521z" fill="white" strokes="white"></path><path d="m252.029 383.112c.1.042.21.08.318.116a10.452 10.452 0 0 0 7.3 0c.122-.04.241-.084.358-.132 57.615-23.343 77.1-66.283 70.847-98.483 0-.014 0-.029-.008-.043-4.634-22.965-21.339-37.8-42.558-37.8-10.342 0-21.414 3.716-32.237 10.787-10.958-7.394-21.88-11.138-32.517-11.138-21.349 0-37.991 15-42.393 38.211-6.239 32.54 13.255 75.614 70.89 98.482zm-59.1-96.237c3.33-17.555 15.057-28.46 30.606-28.46 9.01 0 18.995 3.9 28.877 11.268a6 6 0 0 0 7.112.047c9.882-7.173 19.83-10.964 28.765-10.964 15.482 0 27.277 10.787 30.79 28.155 7.324 37.809-26.326 69.8-63.084 84.852-50.909-20.373-68.368-57.279-63.069-84.898z" fill="white" strokes="white"></path></svg>