<svg xmlns="http://www.w3.org/2000/svg" id="Outline" viewBox="0 0 512 512" width="512" height="512"><path d="M488,40H24a8,8,0,0,0-8,8V464a8,8,0,0,0,8,8H488a8,8,0,0,0,8-8V48A8,8,0,0,0,488,40ZM152,56h32V192H152Zm-8,152h48v48H144ZM32,56H136V189.881c-4.147-3.148-10.48-7.816-17.563-12.537C95.119,161.8,85.333,160,80,160c-17.979,0-26.3,18.094-29.786,40H32Zm68.422,167.155L128,236.944V260.12C110.2,273.951,87.709,288,80,288c-7.381,0-16-14.666-16-56s8.619-56,16-56c7.7,0,30.191,14.05,48,27.881v15.175l-20.422-10.211a8,8,0,0,0-7.156,14.31ZM32,216H48.486c-.344,5.371-.486,10.766-.486,16s.142,10.629.486,16H32ZM136,456H32V264H50.214C53.7,285.906,62.021,304,80,304c2.683,0,6.5-.457,12.589-2.889a518.29,518.29,0,0,0-12.54,66.006,8,8,0,0,0,5.753,8.575L136,390.035ZM96.817,362.2c1.787-12.815,6.472-42.164,15.281-71.442q2.993-1.874,6.339-4.1c8.925-5.949,16.669-11.82,20.326-14.656h14.93c-6.61,27.674-15.584,69.87-17.375,101.485ZM184,456H152V384c0-28.847,8.941-72.777,16-102.956,6.7,28.725,16,73.872,16,102.956Zm-1.691-184h14.928c3.657,2.836,11.4,8.707,20.325,14.656q3.354,2.235,6.34,4.1c8.809,29.278,13.494,58.627,15.281,71.442l-39.5,11.285C197.923,342.139,189.132,300.53,182.309,272Zm56.846-59.578a8,8,0,0,0-10.733-3.577L208,219.056V203.88C225.8,190.049,248.291,176,256,176c7.381,0,16,14.666,16,56s-8.619,56-16,56c-7.7,0-30.191-14.05-48-27.881V236.944l27.578-13.789A8,8,0,0,0,239.155,212.422ZM416,456H200V390.035l50.2-14.343a8,8,0,0,0,5.753-8.575,518.29,518.29,0,0,0-12.54-66.006C249.5,303.543,253.317,304,256,304c17.979,0,26.3-18.094,29.786-40h26.508c1.39,19.279,7.541,36.241,13.435,48.508A32.91,32.91,0,0,0,320,312a32.1,32.1,0,0,0-22.563,9.139,31.049,31.049,0,0,0,0,44.585l40.973,40a8,8,0,0,0,11.178,0l40.975-40a31.049,31.049,0,0,0,0-44.583l0,0A32.1,32.1,0,0,0,368,312a32.91,32.91,0,0,0-5.73.508c5.894-12.267,12.045-29.229,13.435-48.508H416ZM287.514,216h54.839c3.527,1.776,15.028,9.267,17.262,32h-72.1c.344-5.371.486-10.766.486-16S287.858,221.371,287.514,216Zm56.472,96.945C338.115,302.4,330.1,284.621,328.356,264h31.285C357.893,284.555,349.858,302.371,343.986,312.945ZM368,328a16.189,16.189,0,0,1,11.382,4.583,15.051,15.051,0,0,1,0,21.693L344,388.82l-35.383-34.542a15.051,15.051,0,0,1,0-21.693,16.426,16.426,0,0,1,22.769,0l7.027,6.861a8,8,0,0,0,11.178,0l7.026-6.86A16.188,16.188,0,0,1,368,328Zm48-80H375.687c-1.165-14.524-5.454-24.8-10.4-32H416Zm0-48H285.786C282.3,178.094,273.979,160,256,160c-5.333,0-15.119,1.8-38.438,17.344-7.082,4.721-13.415,9.389-17.562,12.537V56H416Zm64,256H432V264h48Zm0-208H432V216h48Zm0-48H432V56h48Z" fill="white" strokes="white"></path></svg>