<svg xmlns="http://www.w3.org/2000/svg" xmlns:xlink="http://www.w3.org/1999/xlink" id="Capa_1" x="0px" y="0px" viewBox="0 0 511.999 511.999" style="enable-background:new 0 0 511.999 511.999;" xml:space="preserve">
<g>
	<g>
		<path fill="white" strokes="white" d="M475.364,108.023c-14.768-25.532-36.188-43.604-63.668-53.715c-12.185-4.473-25.923-0.898-34.26,8.894    c-0.056,0.063-0.111,0.126-0.165,0.19c-3.203,3.809-5.454,8.397-6.509,13.262l-6.229,28.645c-0.683,3.147-2.283,5.97-4.631,8.169    L225.471,239.529c-6.269,5.879-13.888,10.399-22.638,13.431c-4.852,1.676-9.537,3.812-13.986,6.316H40.087    c-2.153,0-4.203,0.925-5.626,2.541c-1.424,1.615-2.085,3.765-1.814,5.901l7.206,56.925c0.52,4.109,4.275,7.018,8.382,6.499    c4.109-0.52,7.019-4.273,6.499-8.382l-6.137-48.483H190.74c0.023,0,0.046,0.004,0.069,0.004c0.022,0,0.044-0.004,0.067-0.004    H435.68l-17.427,137.668c-3.239,25.595-23.237,45.938-48.703,49.63H143.53c-4.142,0-7.5,3.358-7.5,7.5c0,4.142,3.358,7.5,7.5,7.5    h219.102V497H121.644v-27.925c0-3.749-2.768-6.921-6.481-7.431c-25.674-3.521-45.882-23.958-49.141-49.7l-7.156-56.537    c-0.52-4.109-4.264-7.022-8.382-6.499c-4.109,0.52-7.019,4.273-6.498,8.382l7.156,56.537    c3.831,30.263,26.244,54.713,55.503,61.486v29.186c0,4.142,3.358,7.5,7.5,7.5h255.988c4.143,0,7.5-3.358,7.5-7.5v-29.186    c29.259-6.772,51.672-31.223,55.502-61.486l18.495-146.11c0.271-2.136-0.391-4.286-1.815-5.901    c-1.423-1.616-3.473-2.541-5.626-2.541h-219.96c4.137-2.585,7.991-5.511,11.504-8.806l134.426-126.056    c4.578-4.286,7.702-9.796,9.033-15.931l6.23-28.646c0.529-2.442,1.644-4.743,3.226-6.666c0.048-0.053,0.094-0.107,0.14-0.162    c4.271-5.091,11.4-6.947,17.735-4.622c24.098,8.867,42.891,24.729,55.859,47.149c1.328,2.294,2.03,4.93,2.03,7.622    c0,3.72-1.328,7.355-3.732,10.224c-1.646,1.958-3.766,3.507-6.119,4.475l-27.116,11.099c-5.807,2.373-10.691,6.405-14.122,11.66    l-48.09,73.59c-2.266,3.467-1.292,8.115,2.176,10.381c3.466,2.265,8.114,1.291,10.381-2.175l48.091-73.591    c1.761-2.696,4.264-4.764,7.242-5.981l27.133-11.105c4.594-1.89,8.711-4.898,11.915-8.71c4.67-5.574,7.241-12.629,7.241-19.866    C479.412,117.83,478.011,112.595,475.364,108.023z"></path>
	</g>
</g>
<g>
	<g>
		<path fill="white" strokes="white" d="M301.674,44.391c-7.633-17.109-17.38-27.861-31.604-34.864c-11.78-5.8-25.922-8.889-43.232-9.441    c-16.52-0.526-30.456,1.352-42.61,5.746c-15.262,5.518-27.745,15.289-35.15,27.513c-8.706,14.372-10.999,35.971-1.483,49.876    c-2.229,4.123-4.172,8.444-5.783,12.948c-1.396,3.901,0.635,8.194,4.535,9.589c0.835,0.299,1.688,0.44,2.526,0.44    c3.079,0,5.966-1.91,7.062-4.976c0.912-2.55,1.961-5.024,3.113-7.432c11.158,7.542,24.571,11.657,38.04,11.657    c3.013,0,6.029-0.206,9.021-0.624c16.234-2.269,31.567-10.79,42.065-23.38c2.394-2.871,4.487-5.87,6.511-8.769    c3.209-4.598,6.241-8.94,10.012-12.129c6.677-5.645,16.186-7.5,29.075-5.673c2.702,0.382,5.399-0.732,7.042-2.911    S302.786,46.883,301.674,44.391z M255.013,49.09c-5.268,4.453-9.009,9.813-12.628,14.998c-1.928,2.763-3.749,5.372-5.731,7.749    c-8.141,9.763-20.031,16.372-32.621,18.131c-12.996,1.813-26.523-1.539-37.236-9.039c14.624-19.719,38.013-31.981,63.388-31.981    c4.142,0,7.5-3.358,7.5-7.5c0-4.142-3.358-7.5-7.5-7.5c-28.795,0-55.442,13.267-72.948,34.843    c-2.397-9.021,0.448-20.703,4.671-27.674c5.635-9.302,15.373-16.823,27.42-21.179c10.335-3.737,22.448-5.328,37.032-4.86    c15.13,0.483,27.261,3.069,37.085,7.906c7.629,3.756,13.495,8.864,18.438,16.263C271.099,39.726,262.234,42.986,255.013,49.09z"></path>
	</g>
</g>
<g>
	<g>
		<path fill="white" strokes="white" d="M179.026,183.223c-0.608-14.279-6.85-28.852-17.573-41.033c-8.54-9.701-19.853-18.055-34.587-25.542    c-15.441-7.845-29.323-11.943-42.44-12.527c-15.828-0.706-29.557,4.029-44.48,15.354c-2.173,1.65-3.28,4.35-2.888,7.051    c0.39,2.699,2.217,4.974,4.77,5.939c12.176,4.6,19.62,10.804,22.757,18.965c1.772,4.61,2.34,9.875,2.94,15.45    c0.379,3.516,0.771,7.151,1.487,10.82c3.145,16.088,12.484,30.937,25.624,40.737c11.598,8.651,25.989,13.27,40.402,13.27    c2.056,0,4.112-0.117,6.161-0.306c-0.148,2.669-0.42,5.346-0.848,8.024c-0.653,4.09,2.132,7.936,6.223,8.59    c0.401,0.064,0.799,0.095,1.193,0.095c3.621,0,6.807-2.628,7.397-6.317c0.755-4.724,1.131-9.446,1.161-14.134    C171.358,220.048,179.742,200.012,179.026,183.223z M154.773,210.119c-5.021-27.237-21.971-51.583-47.136-65.397    c-3.63-1.993-8.19-0.665-10.184,2.966c-1.993,3.631-0.665,8.19,2.966,10.184c22.244,12.211,36.846,34.215,40.176,58.538    c-13.002,1.42-26.475-2.151-36.99-9.995c-10.19-7.6-17.432-19.115-19.871-31.591c-0.594-3.038-0.935-6.201-1.295-9.55    c-0.677-6.287-1.378-12.787-3.853-19.225c-3.393-8.826-9.594-15.95-18.818-21.559c7.893-4.11,15.499-5.763,23.989-5.385    c10.938,0.487,22.817,4.058,36.313,10.915c13.009,6.61,22.862,13.833,30.124,22.081c8.465,9.616,13.382,20.895,13.846,31.76    C164.531,195.387,160.075,204.628,154.773,210.119z"></path>
	</g>
</g>
<g>
</g>
<g>
</g>
<g>
</g>
<g>
</g>
<g>
</g>
<g>
</g>
<g>
</g>
<g>
</g>
<g>
</g>
<g>
</g>
<g>
</g>
<g>
</g>
<g>
</g>
<g>
</g>
<g>
</g>
</svg>
